<svg width="156" height="42" viewBox="0 0 156 42" fill="none" xmlns="http://www.w3.org/2000/svg">
<path d="M150.689 20.8595C149.889 18.1595 143.889 19.4595 145.289 22.6595C146.289 25.0595 152.089 26.5595 154.789 30.4595C159.089 36.7595 149.589 43.8595 142.389 40.4595C137.389 38.0595 137.289 34.3595 137.689 32.8595C138.189 30.6595 140.689 30.5595 140.989 31.7595C141.489 33.9595 140.389 33.8595 140.489 34.7595C140.889 38.3595 146.789 39.8595 149.789 36.7595C153.989 32.4595 150.289 29.6595 149.589 29.1595C147.589 27.7595 144.889 27.3595 143.089 24.9595C139.389 19.8595 145.189 15.4595 149.389 16.6595C151.289 17.2595 152.889 18.6595 152.489 20.4595C152.289 22.1595 151.089 22.0595 150.689 20.8595ZM38.1891 36.6595C37.2891 33.3595 37.8891 26.4595 38.3891 22.4595C39.2891 15.2595 41.3891 11.2595 41.3891 6.85952C41.3891 4.85952 40.7891 0.559516 36.2891 0.359516C25.1891 -0.0404842 21.1891 26.8595 20.5891 30.6595C20.3891 28.9595 20.4891 18.9595 19.6891 11.7595C18.5891 1.05952 16.1891 0.459516 13.8891 0.259516C5.68913 -0.340484 5.08913 15.5595 5.18913 30.7595C5.18913 27.6595 5.58913 21.3595 2.68913 18.0595C1.28913 16.4595 -1.01087 16.5595 0.489125 18.7595C0.689125 18.9595 0.789125 19.4595 1.08913 19.8595C3.88912 24.1595 3.28912 41.4595 6.18913 41.3595C7.08913 41.3595 8.48913 40.9595 8.38912 37.0595C8.08912 25.3595 8.88912 4.35952 12.8891 4.35952C17.0891 4.35952 16.1891 25.1595 17.3891 33.2595C18.0891 37.3595 22.3891 37.6595 23.6891 31.8595C25.4891 24.0595 25.5891 19.0595 29.3891 10.9595C34.4891 0.159516 38.7891 3.65952 36.8891 11.2595C35.9891 15.0595 32.8891 24.3595 34.4891 35.0595C34.9891 38.1595 36.9891 42.0595 38.4891 41.2595C39.2891 40.7595 38.8891 39.3595 38.1891 36.6595ZM44.5891 20.2595C43.4891 21.1595 39.9891 28.4595 41.4891 35.9595C42.9891 42.2595 47.2891 43.7595 52.0891 38.0595C54.7891 43.8595 64.1891 41.2595 69.1891 34.0595C69.4891 37.4595 69.7891 38.0595 69.8891 38.3595C70.3891 40.4595 72.5891 41.2595 73.1891 39.4595C73.6891 37.9595 75.4891 30.1595 79.9891 25.5595C81.1891 24.3595 85.0891 22.7595 83.9891 27.0595C83.6891 28.0595 81.8891 34.4595 81.9891 37.2595C82.0891 40.1595 82.9891 42.6595 84.8891 41.3595C85.6891 40.8595 85.3891 38.4595 85.2891 36.9595C84.8891 30.7595 86.7891 27.7595 87.7891 25.2595C88.7891 22.7595 88.0891 19.6595 83.7891 20.2595C79.1891 20.9595 74.5891 26.2595 72.2891 33.0595C72.3891 22.2595 78.0891 11.5595 81.8891 2.35952C82.4891 1.25952 80.0891 -1.44048 77.4891 1.35952C75.0891 3.95952 69.9891 19.9595 69.5891 27.4595C69.3891 28.7595 67.3891 34.1595 64.2891 36.4595C61.1891 38.7595 55.9891 39.8595 55.8891 34.2595C55.7891 28.6595 58.9891 23.5595 61.2891 22.5595C62.5891 22.0595 63.1891 23.1595 63.6891 23.7595C64.4891 24.6595 67.3891 25.2595 67.2891 22.5595C67.1891 19.7595 64.1891 17.5595 59.8891 19.6595C53.6891 22.6595 51.7891 29.9595 51.3891 33.0595C50.7891 37.0595 49.1891 38.7595 48.7891 39.0595C48.3891 39.3595 45.9891 41.7595 45.5891 36.0595C45.4891 32.4595 46.4891 28.6595 47.4891 25.8595C48.4891 23.0595 48.3891 23.4595 48.5891 22.7595C49.0891 20.4595 46.6891 18.5595 44.5891 20.2595ZM48.9891 12.1595C47.2891 12.2595 45.3891 14.5595 46.5891 16.8595C47.0891 17.7595 48.2891 18.1595 49.1891 17.7595C50.0891 17.3595 51.6891 15.7595 51.6891 14.3595C51.8891 12.9595 50.9891 11.9595 48.9891 12.1595ZM103.789 23.8595C104.089 24.4595 105.189 24.5595 105.589 23.2595C105.989 21.7595 104.689 17.9595 101.789 17.8595C98.9891 17.7595 96.7891 19.3595 94.5891 21.7595C92.5891 23.9595 86.8891 31.9595 87.1891 37.8595C87.4891 40.9595 90.2891 42.1595 93.5891 40.1595C97.5891 37.7595 100.489 33.4595 101.089 32.7595C101.289 37.8595 105.589 41.2595 110.789 36.2595C111.589 37.7595 112.589 39.0595 113.989 39.9595C117.789 42.5595 124.489 42.0595 129.489 34.1595C130.489 37.8595 131.189 39.3595 131.489 39.9595C132.489 41.9595 134.589 42.2595 134.689 39.7595C134.789 38.9595 133.889 37.0595 133.189 34.3595C131.189 26.8595 128.389 13.7595 134.689 4.95952C137.389 1.95952 140.189 1.15952 140.589 4.65952C140.789 6.55952 140.489 14.9595 134.289 26.0595C133.389 27.9595 135.289 28.5595 135.889 27.2595C136.789 25.3595 144.789 13.1595 144.589 4.85952C144.489 -0.0404844 137.289 -2.64048 132.089 3.95952C127.189 10.3595 126.789 22.7595 128.489 29.7595C125.089 35.8595 121.489 40.8595 116.689 38.3595C111.689 35.2595 113.289 24.5595 116.589 22.1595C118.789 20.5595 120.189 22.4595 118.989 24.7595C117.389 27.7595 116.189 28.2595 115.089 29.0595C113.689 30.1595 114.589 31.5595 115.889 31.0595C119.789 29.6595 121.789 26.4595 122.589 23.8595C124.789 16.8595 116.189 14.3595 111.889 22.3595C108.889 27.8595 110.089 32.5595 110.089 33.1595C109.189 34.2595 106.289 38.1595 105.789 35.4595C105.289 32.8595 106.089 28.8595 106.289 27.7595C106.689 24.8595 103.889 23.7595 102.189 26.2595C100.389 28.8595 96.9891 35.8595 92.8891 37.8595C88.9891 39.9595 92.5891 28.0595 95.5891 24.6595C97.3891 22.4595 100.289 19.9595 103.089 22.8595C103.489 23.4595 103.589 23.2595 103.789 23.8595Z" fill="#CF202F"/>
</svg>
