<?xml version="1.0" encoding="utf-8"?>
<!-- Generator: Adobe Illustrator 25.2.1, SVG Export Plug-In . SVG Version: 6.00 Build 0)  -->
<!DOCTYPE svg PUBLIC "-//W3C//DTD SVG 1.1//EN" "http://www.w3.org/Graphics/SVG/1.1/DTD/svg11.dtd" [
	<!ENTITY ns_extend "http://ns.adobe.com/Extensibility/1.0/">
	<!ENTITY ns_ai "http://ns.adobe.com/AdobeIllustrator/10.0/">
	<!ENTITY ns_graphs "http://ns.adobe.com/Graphs/1.0/">
	<!ENTITY ns_vars "http://ns.adobe.com/Variables/1.0/">
	<!ENTITY ns_imrep "http://ns.adobe.com/ImageReplacement/1.0/">
	<!ENTITY ns_sfw "http://ns.adobe.com/SaveForWeb/1.0/">
	<!ENTITY ns_custom "http://ns.adobe.com/GenericCustomNamespace/1.0/">
	<!ENTITY ns_adobe_xpath "http://ns.adobe.com/XPath/1.0/">
]>
<svg version="1.1" id="Layer_1" xmlns:x="&ns_extend;" xmlns:i="&ns_ai;" xmlns:graph="&ns_graphs;"
	 xmlns="http://www.w3.org/2000/svg" xmlns:xlink="http://www.w3.org/1999/xlink" x="0px" y="0px" viewBox="0 0 158 70"
	 style="enable-background:new 0 0 158 70;" xml:space="preserve">
<style type="text/css">
	.st0{fill:#CF202F;}
</style>
<metadata>
	<sfw  xmlns="&ns_sfw;">
		<slices></slices>
		<sliceSourceBounds  bottomLeftOrigin="true" height="68.6" width="155.9" x="131.3" y="57.8"></sliceSourceBounds>
	</sfw>
</metadata>
<path class="st0" d="M151.8,21.5c-0.8-2.7-6.8-1.4-5.4,1.8c1,2.4,6.8,3.9,9.5,7.8c4.3,6.3-5.2,13.4-12.4,10c-5-2.4-5.1-6.1-4.7-7.6
	c0.5-2.2,3-2.3,3.3-1.1c0.5,2.2-0.6,2.1-0.5,3c0.4,3.6,6.3,5.1,9.3,2c4.2-4.3,0.5-7.1-0.2-7.6c-2-1.4-4.7-1.8-6.5-4.2
	c-3.7-5.1,2.1-9.5,6.3-8.3c1.9,0.6,3.5,2,3.1,3.8C153.4,22.8,152.2,22.7,151.8,21.5 M39.3,37.3C38.4,34,39,27.1,39.5,23.1
	c0.9-7.2,3-11.2,3-15.6c0-2-0.6-6.3-5.1-6.5C26.3,0.6,22.3,27.5,21.7,31.3c-0.2-1.7-0.1-11.7-0.9-18.9C19.7,1.7,17.3,1.1,15,0.9
	C6.8,0.3,6.2,16.2,6.3,31.4c0-3.1,0.4-9.4-2.5-12.7c-1.4-1.6-3.7-1.5-2.2,0.7c0.2,0.2,0.3,0.7,0.6,1.1C5,24.8,4.4,42.1,7.3,42
	c0.9,0,2.3-0.4,2.2-4.3C9.2,26,10,5,14,5c4.2,0,3.3,20.8,4.5,28.9c0.7,4.1,5,4.4,6.3-1.4c1.8-7.8,1.9-12.8,5.7-20.9
	c5.1-10.8,9.4-7.3,7.5,0.3C37.1,15.7,34,25,35.6,35.7c0.5,3.1,2.5,7,4,6.2C40.4,41.4,40,40,39.3,37.3 M45.7,20.9
	c-1.1,0.9-4.6,8.2-3.1,15.7c1.5,6.3,5.8,7.8,10.6,2.1c2.7,5.8,12.1,3.2,17.1-4c0.3,3.4,0.6,4,0.7,4.3c0.5,2.1,2.7,2.9,3.3,1.1
	c0.5-1.5,2.3-9.3,6.8-13.9c1.2-1.2,5.1-2.8,4,1.5c-0.3,1-2.1,7.4-2,10.2c0.1,2.9,1,5.4,2.9,4.1c0.8-0.5,0.5-2.9,0.4-4.4
	c-0.4-6.2,1.5-9.2,2.5-11.7s0.3-5.6-4-5c-4.6,0.7-9.2,6-11.5,12.8C73.5,22.9,79.2,12.2,83,3c0.6-1.1-1.8-3.8-4.4-1
	c-2.4,2.6-7.5,18.6-7.9,26.1c-0.2,1.3-2.2,6.7-5.3,9c-3.1,2.3-8.3,3.4-8.4-2.2s3.1-10.7,5.4-11.7c1.3-0.5,1.9,0.6,2.4,1.2
	c0.8,0.9,3.7,1.5,3.6-1.2c-0.1-2.8-3.1-5-7.4-2.9c-6.2,3-8.1,10.3-8.5,13.4c-0.6,4-2.2,5.7-2.6,6c-0.4,0.3-2.8,2.7-3.2-3
	c-0.1-3.6,0.9-7.4,1.9-10.2s0.9-2.4,1.1-3.1C50.2,21.1,47.8,19.2,45.7,20.9 M50.1,12.8c-1.7,0.1-3.6,2.4-2.4,4.7
	c0.5,0.9,1.7,1.3,2.6,0.9c0.9-0.4,2.5-2,2.5-3.4C53,13.6,52.1,12.6,50.1,12.8 M104.9,24.5c0.3,0.6,1.4,0.7,1.8-0.6
	c0.4-1.5-0.9-5.3-3.8-5.4c-2.8-0.1-5,1.5-7.2,3.9c-2,2.2-7.7,10.2-7.4,16.1c0.3,3.1,3.1,4.3,6.4,2.3c4-2.4,6.9-6.7,7.5-7.4
	c0.2,5.1,4.5,8.5,9.7,3.5c0.8,1.5,1.8,2.8,3.2,3.7c3.8,2.6,10.5,2.1,15.5-5.8c1,3.7,1.7,5.2,2,5.8c1,2,3.1,2.3,3.2-0.2
	c0.1-0.8-0.8-2.7-1.5-5.4c-2-7.5-4.8-20.6,1.5-29.4c2.7-3,5.5-3.8,5.9-0.3c0.2,1.9-0.1,10.3-6.3,21.4c-0.9,1.9,1,2.5,1.6,1.2
	c0.9-1.9,8.9-14.1,8.7-22.4c-0.1-4.9-7.3-7.5-12.5-0.9c-4.9,6.4-5.3,18.8-3.6,25.8c-3.4,6.1-7,11.1-11.8,8.6
	c-5-3.1-3.4-13.8-0.1-16.2c2.2-1.6,3.6,0.3,2.4,2.6c-1.6,3-2.8,3.5-3.9,4.3c-1.4,1.1-0.5,2.5,0.8,2c3.9-1.4,5.9-4.6,6.7-7.2
	c2.2-7-6.4-9.5-10.7-1.5c-3,5.5-1.8,10.2-1.8,10.8c-0.9,1.1-3.8,5-4.3,2.3c-0.5-2.6,0.3-6.6,0.5-7.7c0.4-2.9-2.4-4-4.1-1.5
	c-1.8,2.6-5.2,9.6-9.3,11.6c-3.9,2.1-0.3-9.8,2.7-13.2c1.8-2.2,4.7-4.7,7.5-1.8C104.6,24.1,104.7,23.9,104.9,24.5"/>
<path class="st0" d="M41.4,66.1v-8.2l-3.4,8.2h-1.9L32.8,58v8.1h-2.2V54.4h3l3.5,8.5l3.4-8.5h3.1v11.7L41.4,66.1z M47.8,61.4l2-0.3
	c0.5-0.1,0.6-0.3,0.6-0.6c0-0.6-0.4-1.1-1.4-1.1c-0.8-0.1-1.5,0.5-1.6,1.3l-1.9-0.4c0.1-1.3,1.3-2.7,3.5-2.7c2.6,0,3.5,1.5,3.5,3.1
	v4c0,0.4,0,0.9,0.1,1.3h-2c-0.1-0.3-0.1-0.6-0.1-1c-0.5,0.8-1.4,1.3-2.4,1.2c-1.7,0-2.8-1.2-2.8-2.4C45.4,62.4,46.4,61.6,47.8,61.4z
	 M50.4,62.8v-0.4l-1.8,0.3c-0.6,0.1-1,0.4-1,1c0,0.5,0.4,0.9,1,0.9c0,0,0.1,0,0.1,0C49.5,64.7,50.4,64.3,50.4,62.8z M62.4,64.6
	c0,0.5,0,1.1,0.1,1.5h-2.1c-0.1-0.3-0.1-0.6-0.1-0.9c-0.5,0.8-1.4,1.2-2.3,1.1c-2.3,0-4-1.8-4-4.3c0-2.4,1.6-4.2,3.9-4.2
	c1.4,0,2.1,0.6,2.3,1v-4.6h2.2L62.4,64.6z M58.3,64.3c1.1,0,2-0.9,2-2.3c0-1.5-0.9-2.3-2-2.3s-2,0.8-2,2.3S57.1,64.3,58.3,64.3
	L58.3,64.3z M71.9,63.8c-0.4,1.4-1.7,2.6-3.7,2.6c-2.2,0-4.2-1.6-4.2-4.3c0-2.6,1.9-4.3,4-4.3c2.5,0,4,1.6,4,4.2c0,0.3,0,0.6,0,0.7
	h-5.8c0.1,1.1,1,1.9,2,1.9c0.8,0.1,1.6-0.4,1.9-1.2L71.9,63.8z M69.8,61.1c0-0.8-0.6-1.6-1.8-1.6c-0.9,0-1.7,0.7-1.8,1.6H69.8z
	 M78.1,66.1v-12h2.2v4.7c0.4-0.6,1.3-1.1,2.5-1.1c2.4,0,3.7,1.8,3.7,4.2c0,2.4-1.5,4.3-3.8,4.3c-1,0.1-1.9-0.4-2.4-1.2v1L78.1,66.1z
	 M82.3,59.7c-1.1,0-2,0.8-2,2.3c0,1.5,0.9,2.3,2,2.3c1.1,0,2-0.8,2-2.3C84.3,60.5,83.4,59.7,82.3,59.7L82.3,59.7z M88.4,69.3
	l1.9-4.2L86.9,58h2.5l2.2,4.8l2-4.8h2.3l-5.1,11.3H88.4z M102.1,69.3l1.9-4.2l-3.5-7.1h2.5l2.2,4.8l2-4.8h2.3l-5.1,11.3H102.1z
	 M118.4,62c0,2.4-2,4.2-4.3,4.2c-2.4,0-4.2-2-4.2-4.3c0-2.3,1.9-4.2,4.3-4.2c2.3,0,4.2,1.8,4.3,4.1C118.4,61.9,118.4,62,118.4,62
	L118.4,62z M116.2,62c0-1.5-1-2.3-2.1-2.3c-1.1,0-2.1,0.8-2.1,2.3s1,2.3,2.1,2.3C115.2,64.4,116.2,63.6,116.2,62L116.2,62z
	 M125.3,65.2c-0.4,0.7-1.4,1.1-2.2,1.1c-2,0-3.1-1.4-3.1-3.2V58h2.2v4.7c0,0.9,0.5,1.6,1.5,1.6c1,0,1.5-0.7,1.5-1.6V58h2.2v6.7
	c0,0.5,0,1,0.1,1.5h-2.1C125.3,65.8,125.3,65.5,125.3,65.2z"/>
<path class="st0" d="M129.9,58c0.8,0,1.4,0.6,1.4,1.3c0,0.8-0.6,1.4-1.3,1.4c-0.8,0-1.4-0.6-1.4-1.3c0,0,0,0,0,0
	C128.5,58.6,129.1,58,129.9,58z M129.9,60.4c0.6,0,1.1-0.4,1.1-1c0-0.6-0.4-1.1-1-1.1c-0.6,0-1.1,0.4-1.1,1c0,0,0,0,0,0
	C128.8,59.9,129.3,60.4,129.9,60.4C129.9,60.4,129.9,60.4,129.9,60.4z M129.8,59.5h-0.1v0.5h-0.3v-1.5h0.5c0.3,0,0.5,0.2,0.5,0.5
	c0,0,0,0,0,0c0,0.2-0.1,0.4-0.3,0.4l0.3,0.6h-0.4L129.8,59.5z M129.9,59.3c0.1,0,0.2-0.1,0.2-0.2c0-0.1-0.1-0.2-0.2-0.2h-0.2v0.4
	L129.9,59.3z"/>
</svg>
