<svg width="94" height="26" viewBox="0 0 94 26" fill="none" xmlns="http://www.w3.org/2000/svg">
<path d="M90.748 12.562C90.2663 10.936 86.6529 11.7189 87.496 13.646C88.0983 15.0913 91.5911 15.9947 93.2171 18.3433C95.8067 22.1373 90.0856 26.4131 85.7496 24.3655C82.7385 22.9202 82.6783 20.692 82.9192 19.7887C83.2203 18.4638 84.7258 18.4036 84.9065 19.1262C85.2076 20.4511 84.5452 20.3909 84.6054 20.9329C84.8463 23.1009 88.3994 24.0042 90.206 22.1373C92.7354 19.5478 90.5071 17.8616 90.0856 17.5604C88.8811 16.7173 87.2552 16.4765 86.1712 15.0311C83.9429 11.9598 87.4358 9.31003 89.9651 10.0327C91.1094 10.394 92.0729 11.2371 91.832 12.3211C91.7116 13.3449 90.9889 13.2847 90.748 12.562ZM22.9983 22.0771C22.4563 20.0898 22.8176 15.9345 23.1187 13.5256C23.6607 9.18959 24.9254 6.78071 24.9254 4.13094C24.9254 2.9265 24.564 0.336952 21.854 0.216508C15.1694 -0.0243804 12.7605 16.1753 12.3992 18.4638C12.2787 17.44 12.339 11.4178 11.8572 7.08182C11.1947 0.638062 9.74942 0.27673 8.36431 0.156286C3.42611 -0.205047 3.06477 9.37026 3.125 18.524C3.125 16.6571 3.36588 12.8631 1.61945 10.8758C0.776337 9.91225 -0.608769 9.97248 0.294561 11.2974C0.415005 11.4178 0.475227 11.7189 0.655893 11.9598C2.34211 14.5493 1.98078 24.9678 3.72722 24.9075C4.26921 24.9075 5.11232 24.6667 5.0521 22.318C4.87143 15.272 5.35321 2.62539 7.76209 2.62539C10.2914 2.62539 9.74942 15.1516 10.4721 20.0296C10.8936 22.4987 13.4832 22.6793 14.2661 19.1864C15.3501 14.4891 15.4103 11.478 17.6987 6.60004C20.77 0.096064 23.3596 2.20383 22.2154 6.78071C21.6734 9.06915 19.8065 14.6698 20.77 21.1136C21.0712 22.9804 22.2756 25.3291 23.1789 24.8473C23.6607 24.5462 23.4198 23.7031 22.9983 22.0771ZM26.8525 12.2007C26.19 12.7427 24.0823 17.1389 24.9856 21.6555C25.8889 25.4495 28.4785 26.3529 31.3691 22.9202C32.9951 26.4131 38.656 24.8473 41.6671 20.5113C41.8478 22.5589 42.0284 22.9202 42.0886 23.1009C42.3898 24.3655 43.7146 24.8473 44.076 23.7633C44.3771 22.86 45.4611 18.1627 48.1711 15.3925C48.8937 14.6698 51.2424 13.7062 50.5799 16.2958C50.3993 16.898 49.3153 20.7522 49.3755 22.4384C49.4357 24.1849 49.9777 25.6904 51.1219 24.9075C51.6037 24.6064 51.4231 23.1611 51.3628 22.2578C51.1219 18.524 52.2662 16.7173 52.8684 15.2118C53.4706 13.7062 53.049 11.8394 50.4595 12.2007C47.6893 12.6222 44.9191 15.814 43.534 19.9091C43.5942 13.4051 47.0268 6.96137 49.3153 1.42095C49.6766 0.758506 48.2313 -0.867489 46.6655 0.818728C45.2202 2.3845 42.1489 12.02 41.908 16.5367C41.7875 17.3196 40.5831 20.5716 38.7162 21.9567C36.8493 23.3418 33.7178 24.0042 33.6576 20.6318C33.5973 17.2593 35.5244 14.188 36.9095 13.5858C37.6924 13.2847 38.0538 13.9471 38.3549 14.3085C38.8367 14.8505 40.5831 15.2118 40.5229 13.5858C40.4626 11.8996 38.656 10.5747 36.0664 11.8394C32.3327 13.646 31.1885 18.0422 30.9476 19.9091C30.5862 22.318 29.6227 23.3418 29.3818 23.5224C29.1409 23.7031 27.6956 25.1484 27.4547 21.7158C27.3945 19.5478 27.9967 17.2593 28.5989 15.5731C29.2011 13.8869 29.1409 14.1278 29.2614 13.7062C29.5625 12.3211 28.1171 11.1769 26.8525 12.2007ZM29.5022 7.32271C28.4785 7.38293 27.3342 8.76803 28.0569 10.1531C28.358 10.6951 29.0807 10.936 29.6227 10.6951C30.1647 10.4543 31.1282 9.4907 31.1282 8.64759C31.2487 7.80448 30.7067 7.20226 29.5022 7.32271ZM62.5039 14.3687C62.6846 14.73 63.347 14.7902 63.5879 14.0074C63.8288 13.104 63.0459 10.8156 61.2995 10.7554C59.6132 10.6951 58.2884 11.6587 56.9635 13.104C55.759 14.4289 52.3264 19.2467 52.507 22.7998C52.6877 24.6666 54.3739 25.3893 56.3613 24.1849C58.7701 22.7395 60.5166 20.15 60.8779 19.7284C60.9984 22.7998 63.5879 24.8473 66.7194 21.8362C67.2012 22.7395 67.8034 23.5224 68.6465 24.0644C70.935 25.6302 74.9699 25.3291 77.981 20.5716C78.5832 22.7998 79.0047 23.7031 79.1854 24.0644C79.7876 25.2689 81.0523 25.4495 81.1125 23.944C81.1727 23.4622 80.6307 22.318 80.2092 20.692C79.0047 16.1753 77.3185 8.28626 81.1125 2.98672C82.7385 1.18006 84.4247 0.698284 84.6656 2.80605C84.7861 3.95027 84.6054 9.00892 80.8716 15.6936C80.3296 16.8378 81.4738 17.1991 81.8352 16.4162C82.3772 15.272 87.1949 7.92493 87.0745 2.9265C87.0143 -0.0243805 82.6783 -1.59015 79.5467 2.3845C76.5959 6.23871 76.355 13.7062 77.3788 17.9218C75.3312 21.5953 73.1632 24.6064 70.2725 23.1009C67.2614 21.234 68.225 14.7902 70.2123 13.3449C71.5372 12.3814 72.3803 13.5256 71.6576 14.9107C70.6941 16.7173 69.9714 17.0185 69.309 17.5002C68.4659 18.1627 69.0079 19.0058 69.7908 18.7047C72.1394 17.8616 73.3439 15.9345 73.8256 14.3687C75.1505 10.1531 69.9714 8.64759 67.3819 13.4654C65.5752 16.7776 66.2979 19.608 66.2979 19.9693C65.7559 20.6318 64.0095 22.9804 63.7083 21.3544C63.4072 19.7887 63.889 17.3798 64.0095 16.7173C64.2503 14.9709 62.5641 14.3085 61.5404 15.814C60.4564 17.3798 58.4088 21.5953 55.9397 22.7998C53.591 24.0644 55.759 16.898 57.5657 14.8505C58.6497 13.5256 60.3961 12.02 62.0823 13.7665C62.3232 14.1278 62.3835 14.0074 62.5039 14.3687Z" fill="white"/>
</svg>
