<svg width="358" height="108" viewBox="0 0 358 108" fill="none" xmlns="http://www.w3.org/2000/svg">
<rect width="358" height="108" rx="4" fill="url(#paint0_linear_231_2142)"/>
<path d="M330.664 43L328 45.7025L336.653 54.5L328 63.2975L330.664 66L342 54.5L330.664 43Z" fill="white"/>
<path d="M27.56 23.64H23.08V21H35.28V23.64H30.8V35H27.56V23.64ZM39.5489 25.66C39.9222 25.14 40.4222 24.7467 41.0489 24.48C41.6889 24.2133 42.4222 24.08 43.2489 24.08V26.96C42.9022 26.9333 42.6689 26.92 42.5489 26.92C41.6556 26.92 40.9556 27.1733 40.4489 27.68C39.9422 28.1733 39.6889 28.92 39.6889 29.92V35H36.5689V24.24H39.5489V25.66ZM56.1552 24.24L51.2952 35.66C50.8018 36.9 50.1885 37.7733 49.4552 38.28C48.7352 38.7867 47.8618 39.04 46.8352 39.04C46.2752 39.04 45.7218 38.9533 45.1752 38.78C44.6285 38.6067 44.1818 38.3667 43.8352 38.06L44.9752 35.84C45.2152 36.0533 45.4885 36.22 45.7952 36.34C46.1152 36.46 46.4285 36.52 46.7352 36.52C47.1618 36.52 47.5085 36.4133 47.7752 36.2C48.0418 36 48.2818 35.66 48.4952 35.18L48.5352 35.08L43.8752 24.24H47.0952L50.1152 31.54L53.1552 24.24H56.1552ZM66.7123 35.16C65.819 35.16 64.9457 35.0533 64.0923 34.84C63.239 34.6133 62.559 34.3333 62.0523 34L63.0923 31.76C63.5723 32.0667 64.1523 32.32 64.8323 32.52C65.5123 32.7067 66.179 32.8 66.8323 32.8C68.1523 32.8 68.8123 32.4733 68.8123 31.82C68.8123 31.5133 68.6323 31.2933 68.2723 31.16C67.9123 31.0267 67.359 30.9133 66.6123 30.82C65.7323 30.6867 65.0057 30.5333 64.4323 30.36C63.859 30.1867 63.359 29.88 62.9323 29.44C62.519 29 62.3123 28.3733 62.3123 27.56C62.3123 26.88 62.5057 26.28 62.8923 25.76C63.2923 25.2267 63.8657 24.8133 64.6123 24.52C65.3723 24.2267 66.2657 24.08 67.2923 24.08C68.0523 24.08 68.8057 24.1667 69.5523 24.34C70.3123 24.5 70.939 24.7267 71.4323 25.02L70.3923 27.24C69.4457 26.7067 68.4123 26.44 67.2923 26.44C66.6257 26.44 66.1257 26.5333 65.7923 26.72C65.459 26.9067 65.2923 27.1467 65.2923 27.44C65.2923 27.7733 65.4723 28.0067 65.8323 28.14C66.1923 28.2733 66.7657 28.4 67.5523 28.52C68.4323 28.6667 69.1523 28.8267 69.7123 29C70.2723 29.16 70.759 29.46 71.1723 29.9C71.5857 30.34 71.7923 30.9533 71.7923 31.74C71.7923 32.4067 71.5923 33 71.1923 33.52C70.7923 34.04 70.2057 34.4467 69.4323 34.74C68.6723 35.02 67.7657 35.16 66.7123 35.16ZM78.8373 35.16C77.704 35.16 76.684 34.9267 75.7773 34.46C74.884 33.98 74.184 33.32 73.6773 32.48C73.1707 31.64 72.9173 30.6867 72.9173 29.62C72.9173 28.5533 73.1707 27.6 73.6773 26.76C74.184 25.92 74.884 25.2667 75.7773 24.8C76.684 24.32 77.704 24.08 78.8373 24.08C79.9707 24.08 80.984 24.32 81.8773 24.8C82.7707 25.2667 83.4707 25.92 83.9773 26.76C84.484 27.6 84.7373 28.5533 84.7373 29.62C84.7373 30.6867 84.484 31.64 83.9773 32.48C83.4707 33.32 82.7707 33.98 81.8773 34.46C80.984 34.9267 79.9707 35.16 78.8373 35.16ZM78.8373 32.6C79.6373 32.6 80.2907 32.3333 80.7973 31.8C81.3173 31.2533 81.5773 30.5267 81.5773 29.62C81.5773 28.7133 81.3173 27.9933 80.7973 27.46C80.2907 26.9133 79.6373 26.64 78.8373 26.64C78.0373 26.64 77.3773 26.9133 76.8573 27.46C76.3373 27.9933 76.0773 28.7133 76.0773 29.62C76.0773 30.5267 76.3373 31.2533 76.8573 31.8C77.3773 32.3333 78.0373 32.6 78.8373 32.6ZM100.603 24.08C101.949 24.08 103.016 24.48 103.803 25.28C104.603 26.0667 105.003 27.2533 105.003 28.84V35H101.883V29.32C101.883 28.4667 101.703 27.8333 101.343 27.42C100.996 26.9933 100.496 26.78 99.8428 26.78C99.1095 26.78 98.5295 27.02 98.1028 27.5C97.6761 27.9667 97.4628 28.6667 97.4628 29.6V35H94.3428V29.32C94.3428 27.6267 93.6628 26.78 92.3028 26.78C91.5828 26.78 91.0095 27.02 90.5828 27.5C90.1561 27.9667 89.9428 28.6667 89.9428 29.6V35H86.8228V24.24H89.8028V25.48C90.2028 25.0267 90.6895 24.68 91.2628 24.44C91.8495 24.2 92.4895 24.08 93.1828 24.08C93.9428 24.08 94.6295 24.2333 95.2428 24.54C95.8561 24.8333 96.3495 25.2667 96.7228 25.84C97.1628 25.28 97.7161 24.8467 98.3828 24.54C99.0628 24.2333 99.8028 24.08 100.603 24.08ZM118.457 29.66C118.457 29.7 118.437 29.98 118.397 30.5H110.257C110.403 31.1667 110.75 31.6933 111.297 32.08C111.843 32.4667 112.523 32.66 113.337 32.66C113.897 32.66 114.39 32.58 114.817 32.42C115.257 32.2467 115.663 31.98 116.037 31.62L117.697 33.42C116.683 34.58 115.203 35.16 113.257 35.16C112.043 35.16 110.97 34.9267 110.037 34.46C109.103 33.98 108.383 33.32 107.877 32.48C107.37 31.64 107.117 30.6867 107.117 29.62C107.117 28.5667 107.363 27.62 107.857 26.78C108.363 25.9267 109.05 25.2667 109.917 24.8C110.797 24.32 111.777 24.08 112.857 24.08C113.91 24.08 114.863 24.3067 115.717 24.76C116.57 25.2133 117.237 25.8667 117.717 26.72C118.21 27.56 118.457 28.54 118.457 29.66ZM112.877 26.44C112.17 26.44 111.577 26.64 111.097 27.04C110.617 27.44 110.323 27.9867 110.217 28.68H115.517C115.41 28 115.117 27.46 114.637 27.06C114.157 26.6467 113.57 26.44 112.877 26.44ZM127.474 34.48C127.167 34.7067 126.787 34.88 126.334 35C125.894 35.1067 125.427 35.16 124.934 35.16C123.654 35.16 122.66 34.8333 121.954 34.18C121.26 33.5267 120.914 32.5667 120.914 31.3V26.88H119.254V24.48H120.914V21.86H124.034V24.48H126.714V26.88H124.034V31.26C124.034 31.7133 124.147 32.0667 124.374 32.32C124.614 32.56 124.947 32.68 125.374 32.68C125.867 32.68 126.287 32.5467 126.634 32.28L127.474 34.48ZM135.765 24.08C137.098 24.08 138.172 24.48 138.985 25.28C139.812 26.08 140.225 27.2667 140.225 28.84V35H137.105V29.32C137.105 28.4667 136.918 27.8333 136.545 27.42C136.172 26.9933 135.632 26.78 134.925 26.78C134.138 26.78 133.512 27.0267 133.045 27.52C132.578 28 132.345 28.72 132.345 29.68V35H129.225V20.16H132.345V25.36C132.758 24.9467 133.258 24.6333 133.845 24.42C134.432 24.1933 135.072 24.08 135.765 24.08ZM143.053 24.24H146.173V35H143.053V24.24ZM144.613 22.74C144.04 22.74 143.573 22.5733 143.213 22.24C142.853 21.9067 142.673 21.4933 142.673 21C142.673 20.5067 142.853 20.0933 143.213 19.76C143.573 19.4267 144.04 19.26 144.613 19.26C145.187 19.26 145.653 19.42 146.013 19.74C146.373 20.06 146.553 20.46 146.553 20.94C146.553 21.46 146.373 21.8933 146.013 22.24C145.653 22.5733 145.187 22.74 144.613 22.74ZM155.609 24.08C156.942 24.08 158.016 24.48 158.829 25.28C159.656 26.08 160.069 27.2667 160.069 28.84V35H156.949V29.32C156.949 28.4667 156.762 27.8333 156.389 27.42C156.016 26.9933 155.476 26.78 154.769 26.78C153.982 26.78 153.356 27.0267 152.889 27.52C152.422 28 152.189 28.72 152.189 29.68V35H149.069V24.24H152.049V25.5C152.462 25.0467 152.976 24.7 153.589 24.46C154.202 24.2067 154.876 24.08 155.609 24.08ZM174.114 24.24V33.2C174.114 35.1733 173.601 36.64 172.574 37.6C171.548 38.56 170.048 39.04 168.074 39.04C167.034 39.04 166.048 38.9133 165.114 38.66C164.181 38.4067 163.408 38.04 162.794 37.56L164.034 35.32C164.488 35.6933 165.061 35.9867 165.754 36.2C166.448 36.4267 167.141 36.54 167.834 36.54C168.914 36.54 169.708 36.2933 170.214 35.8C170.734 35.32 170.994 34.5867 170.994 33.6V33.14C170.181 34.0333 169.048 34.48 167.594 34.48C166.608 34.48 165.701 34.2667 164.874 33.84C164.061 33.4 163.414 32.7867 162.934 32C162.454 31.2133 162.214 30.3067 162.214 29.28C162.214 28.2533 162.454 27.3467 162.934 26.56C163.414 25.7733 164.061 25.1667 164.874 24.74C165.701 24.3 166.608 24.08 167.594 24.08C169.154 24.08 170.341 24.5933 171.154 25.62V24.24H174.114ZM168.214 31.92C169.041 31.92 169.714 31.68 170.234 31.2C170.768 30.7067 171.034 30.0667 171.034 29.28C171.034 28.4933 170.768 27.86 170.234 27.38C169.714 26.8867 169.041 26.64 168.214 26.64C167.388 26.64 166.708 26.8867 166.174 27.38C165.641 27.86 165.374 28.4933 165.374 29.28C165.374 30.0667 165.641 30.7067 166.174 31.2C166.708 31.68 167.388 31.92 168.214 31.92ZM189.222 24.08C190.556 24.08 191.629 24.48 192.442 25.28C193.269 26.08 193.682 27.2667 193.682 28.84V35H190.562V29.32C190.562 28.4667 190.376 27.8333 190.002 27.42C189.629 26.9933 189.089 26.78 188.382 26.78C187.596 26.78 186.969 27.0267 186.502 27.52C186.036 28 185.802 28.72 185.802 29.68V35H182.682V24.24H185.662V25.5C186.076 25.0467 186.589 24.7 187.202 24.46C187.816 24.2067 188.489 24.08 189.222 24.08ZM207.168 29.66C207.168 29.7 207.148 29.98 207.108 30.5H198.968C199.114 31.1667 199.461 31.6933 200.008 32.08C200.554 32.4667 201.234 32.66 202.048 32.66C202.608 32.66 203.101 32.58 203.528 32.42C203.968 32.2467 204.374 31.98 204.748 31.62L206.408 33.42C205.394 34.58 203.914 35.16 201.968 35.16C200.754 35.16 199.681 34.9267 198.748 34.46C197.814 33.98 197.094 33.32 196.588 32.48C196.081 31.64 195.828 30.6867 195.828 29.62C195.828 28.5667 196.074 27.62 196.568 26.78C197.074 25.9267 197.761 25.2667 198.628 24.8C199.508 24.32 200.488 24.08 201.568 24.08C202.621 24.08 203.574 24.3067 204.428 24.76C205.281 25.2133 205.948 25.8667 206.428 26.72C206.921 27.56 207.168 28.54 207.168 29.66ZM201.588 26.44C200.881 26.44 200.288 26.64 199.808 27.04C199.328 27.44 199.034 27.9867 198.928 28.68H204.228C204.121 28 203.828 27.46 203.348 27.06C202.868 26.6467 202.281 26.44 201.588 26.44ZM226.329 24.24L222.429 35H219.429L217.009 28.32L214.509 35H211.509L207.629 24.24H210.569L213.109 31.52L215.749 24.24H218.389L220.949 31.52L223.569 24.24H226.329ZM228.315 35.16C227.769 35.16 227.309 34.9733 226.935 34.6C226.562 34.2267 226.375 33.76 226.375 33.2C226.375 32.6267 226.562 32.1667 226.935 31.82C227.309 31.46 227.769 31.28 228.315 31.28C228.862 31.28 229.322 31.46 229.695 31.82C230.069 32.1667 230.255 32.6267 230.255 33.2C230.255 33.76 230.069 34.2267 229.695 34.6C229.322 34.9733 228.862 35.16 228.315 35.16Z" fill="white"/>
<path d="M26.008 57.824V62.224H31.8V63.248H26.008V68H24.824V56.8H32.504V57.824H26.008ZM34.5528 59.584H35.6888V68H34.5528V59.584ZM35.1288 57.744C34.8941 57.744 34.6968 57.664 34.5368 57.504C34.3768 57.344 34.2968 57.152 34.2968 56.928C34.2968 56.7147 34.3768 56.528 34.5368 56.368C34.6968 56.208 34.8941 56.128 35.1288 56.128C35.3634 56.128 35.5608 56.208 35.7208 56.368C35.8808 56.5173 35.9608 56.6987 35.9608 56.912C35.9608 57.1467 35.8808 57.344 35.7208 57.504C35.5608 57.664 35.3634 57.744 35.1288 57.744ZM43.1376 59.52C44.1936 59.52 45.031 59.8293 45.6496 60.448C46.279 61.056 46.5936 61.9467 46.5936 63.12V68H45.4576V63.232C45.4576 62.3573 45.239 61.6907 44.8016 61.232C44.3643 60.7733 43.7403 60.544 42.9296 60.544C42.023 60.544 41.303 60.816 40.7696 61.36C40.247 61.8933 39.9856 62.6347 39.9856 63.584V68H38.8496V59.584H39.9376V61.136C40.247 60.624 40.6736 60.2293 41.2176 59.952C41.7723 59.664 42.4123 59.52 43.1376 59.52ZM57.389 56.128V68H56.301V66.336C55.9597 66.9013 55.5063 67.3333 54.941 67.632C54.3863 67.9307 53.757 68.08 53.053 68.08C52.2637 68.08 51.549 67.8987 50.909 67.536C50.269 67.1733 49.7677 66.6667 49.405 66.016C49.0423 65.3653 48.861 64.624 48.861 63.792C48.861 62.96 49.0423 62.2187 49.405 61.568C49.7677 60.9173 50.269 60.416 50.909 60.064C51.549 59.7013 52.2637 59.52 53.053 59.52C53.7357 59.52 54.349 59.664 54.893 59.952C55.4477 60.2293 55.901 60.64 56.253 61.184V56.128H57.389ZM53.149 67.072C53.7357 67.072 54.2637 66.9387 54.733 66.672C55.213 66.3947 55.5863 66.0053 55.853 65.504C56.1303 65.0027 56.269 64.432 56.269 63.792C56.269 63.152 56.1303 62.5813 55.853 62.08C55.5863 61.5787 55.213 61.1947 54.733 60.928C54.2637 60.6507 53.7357 60.512 53.149 60.512C52.5517 60.512 52.013 60.6507 51.533 60.928C51.0637 61.1947 50.6903 61.5787 50.413 62.08C50.1463 62.5813 50.013 63.152 50.013 63.792C50.013 64.432 50.1463 65.0027 50.413 65.504C50.6903 66.0053 51.0637 66.3947 51.533 66.672C52.013 66.9387 52.5517 67.072 53.149 67.072ZM64.9803 56.8H69.5403C70.7243 56.8 71.7696 57.04 72.6763 57.52C73.5829 57.9893 74.2869 58.6507 74.7883 59.504C75.2896 60.3467 75.5403 61.312 75.5403 62.4C75.5403 63.488 75.2896 64.4587 74.7883 65.312C74.2869 66.1547 73.5829 66.816 72.6763 67.296C71.7696 67.7653 70.7243 68 69.5403 68H64.9803V56.8ZM69.4763 66.976C70.4576 66.976 71.3163 66.784 72.0523 66.4C72.7883 66.0053 73.3589 65.4667 73.7643 64.784C74.1696 64.0907 74.3723 63.296 74.3723 62.4C74.3723 61.504 74.1696 60.7147 73.7643 60.032C73.3589 59.3387 72.7883 58.8 72.0523 58.416C71.3163 58.0213 70.4576 57.824 69.4763 57.824H66.1643V66.976H69.4763ZM78.199 56.8H79.383V68H78.199V56.8ZM86.8671 64.128V68H85.6991V64.128L81.2191 56.8H82.4831L86.3231 63.088L90.1631 56.8H91.3471L86.8671 64.128ZM101.467 59.52C102.256 59.52 102.971 59.7013 103.611 60.064C104.251 60.416 104.752 60.9173 105.115 61.568C105.478 62.2187 105.659 62.96 105.659 63.792C105.659 64.6347 105.478 65.3813 105.115 66.032C104.752 66.6827 104.251 67.1893 103.611 67.552C102.982 67.904 102.267 68.08 101.467 68.08C100.784 68.08 100.166 67.9413 99.6109 67.664C99.0669 67.376 98.6189 66.96 98.2669 66.416V71.104H97.1309V59.584H98.2189V61.248C98.5602 60.6933 99.0082 60.2667 99.5629 59.968C100.128 59.6693 100.763 59.52 101.467 59.52ZM101.387 67.072C101.974 67.072 102.507 66.9387 102.987 66.672C103.467 66.3947 103.84 66.0053 104.107 65.504C104.384 65.0027 104.523 64.432 104.523 63.792C104.523 63.152 104.384 62.5867 104.107 62.096C103.84 61.5947 103.467 61.2053 102.987 60.928C102.507 60.6507 101.974 60.512 101.387 60.512C100.79 60.512 100.251 60.6507 99.7709 60.928C99.3015 61.2053 98.9282 61.5947 98.6509 62.096C98.3842 62.5867 98.2509 63.152 98.2509 63.792C98.2509 64.432 98.3842 65.0027 98.6509 65.504C98.9282 66.0053 99.3015 66.3947 99.7709 66.672C100.251 66.9387 100.79 67.072 101.387 67.072ZM109.063 61.232C109.329 60.6667 109.724 60.24 110.247 59.952C110.78 59.664 111.436 59.52 112.215 59.52V60.624L111.943 60.608C111.057 60.608 110.364 60.88 109.863 61.424C109.361 61.968 109.111 62.7307 109.111 63.712V68H107.975V59.584H109.063V61.232ZM117.633 68.08C116.823 68.08 116.092 67.8987 115.441 67.536C114.791 67.1627 114.279 66.6507 113.905 66C113.532 65.3493 113.345 64.6133 113.345 63.792C113.345 62.9707 113.532 62.2347 113.905 61.584C114.279 60.9333 114.791 60.4267 115.441 60.064C116.092 59.7013 116.823 59.52 117.633 59.52C118.444 59.52 119.175 59.7013 119.825 60.064C120.476 60.4267 120.983 60.9333 121.345 61.584C121.719 62.2347 121.905 62.9707 121.905 63.792C121.905 64.6133 121.719 65.3493 121.345 66C120.983 66.6507 120.476 67.1627 119.825 67.536C119.175 67.8987 118.444 68.08 117.633 68.08ZM117.633 67.072C118.231 67.072 118.764 66.9387 119.233 66.672C119.713 66.3947 120.087 66.0053 120.353 65.504C120.62 65.0027 120.753 64.432 120.753 63.792C120.753 63.152 120.62 62.5813 120.353 62.08C120.087 61.5787 119.713 61.1947 119.233 60.928C118.764 60.6507 118.231 60.512 117.633 60.512C117.036 60.512 116.497 60.6507 116.017 60.928C115.548 61.1947 115.175 61.5787 114.897 62.08C114.631 62.5813 114.497 63.152 114.497 63.792C114.497 64.432 114.631 65.0027 114.897 65.504C115.175 66.0053 115.548 66.3947 116.017 66.672C116.497 66.9387 117.036 67.072 117.633 67.072ZM122.977 71.184C122.625 71.184 122.294 71.136 121.985 71.04C121.665 70.9547 121.403 70.8213 121.201 70.64L121.601 69.776C121.931 70.064 122.369 70.208 122.913 70.208C123.361 70.208 123.702 70.0747 123.937 69.808C124.182 69.5413 124.305 69.1467 124.305 68.624V59.584H125.441V68.624C125.441 69.4133 125.227 70.0373 124.801 70.496C124.374 70.9547 123.766 71.184 122.977 71.184ZM124.881 57.728C124.646 57.728 124.449 57.648 124.289 57.488C124.129 57.328 124.049 57.136 124.049 56.912C124.049 56.6987 124.129 56.512 124.289 56.352C124.449 56.192 124.646 56.112 124.881 56.112C125.115 56.112 125.313 56.192 125.473 56.352C125.633 56.5013 125.713 56.6827 125.713 56.896C125.713 57.1307 125.633 57.328 125.473 57.488C125.313 57.648 125.115 57.728 124.881 57.728ZM135.943 64.144H128.903C128.967 65.0187 129.303 65.728 129.911 66.272C130.519 66.8053 131.287 67.072 132.215 67.072C132.738 67.072 133.218 66.9813 133.655 66.8C134.093 66.608 134.471 66.3307 134.791 65.968L135.431 66.704C135.058 67.152 134.589 67.4933 134.023 67.728C133.469 67.9627 132.855 68.08 132.183 68.08C131.319 68.08 130.551 67.8987 129.879 67.536C129.218 67.1627 128.701 66.6507 128.327 66C127.954 65.3493 127.767 64.6133 127.767 63.792C127.767 62.9707 127.943 62.2347 128.295 61.584C128.658 60.9333 129.149 60.4267 129.767 60.064C130.397 59.7013 131.101 59.52 131.879 59.52C132.658 59.52 133.357 59.7013 133.975 60.064C134.594 60.4267 135.079 60.9333 135.431 61.584C135.783 62.224 135.959 62.96 135.959 63.792L135.943 64.144ZM131.879 60.496C131.069 60.496 130.386 60.7573 129.831 61.28C129.287 61.792 128.978 62.464 128.903 63.296H134.871C134.797 62.464 134.482 61.792 133.927 61.28C133.383 60.7573 132.701 60.496 131.879 60.496ZM141.76 68.08C140.928 68.08 140.181 67.8987 139.52 67.536C138.869 67.1733 138.357 66.6667 137.984 66.016C137.61 65.3547 137.424 64.6133 137.424 63.792C137.424 62.9707 137.61 62.2347 137.984 61.584C138.357 60.9333 138.869 60.4267 139.52 60.064C140.181 59.7013 140.928 59.52 141.76 59.52C142.485 59.52 143.13 59.664 143.696 59.952C144.272 60.2293 144.725 60.64 145.056 61.184L144.208 61.76C143.93 61.344 143.578 61.0347 143.152 60.832C142.725 60.6187 142.261 60.512 141.76 60.512C141.152 60.512 140.602 60.6507 140.112 60.928C139.632 61.1947 139.253 61.5787 138.976 62.08C138.709 62.5813 138.576 63.152 138.576 63.792C138.576 64.4427 138.709 65.0187 138.976 65.52C139.253 66.0107 139.632 66.3947 140.112 66.672C140.602 66.9387 141.152 67.072 141.76 67.072C142.261 67.072 142.725 66.9707 143.152 66.768C143.578 66.5653 143.93 66.256 144.208 65.84L145.056 66.416C144.725 66.96 144.272 67.376 143.696 67.664C143.12 67.9413 142.474 68.08 141.76 68.08ZM151.813 67.488C151.6 67.68 151.333 67.8293 151.013 67.936C150.704 68.032 150.378 68.08 150.037 68.08C149.248 68.08 148.64 67.8667 148.213 67.44C147.786 67.0133 147.573 66.4107 147.573 65.632V60.544H146.069V59.584H147.573V57.744H148.709V59.584H151.269V60.544H148.709V65.568C148.709 66.0693 148.832 66.4533 149.077 66.72C149.333 66.976 149.696 67.104 150.165 67.104C150.4 67.104 150.624 67.0667 150.837 66.992C151.061 66.9173 151.253 66.8107 151.413 66.672L151.813 67.488ZM156.137 68.08C155.454 68.08 154.798 67.984 154.169 67.792C153.55 67.5893 153.065 67.3387 152.713 67.04L153.225 66.144C153.577 66.4213 154.02 66.6507 154.553 66.832C155.086 67.0027 155.641 67.088 156.217 67.088C156.985 67.088 157.55 66.9707 157.913 66.736C158.286 66.4907 158.473 66.1493 158.473 65.712C158.473 65.4027 158.372 65.1627 158.169 64.992C157.966 64.8107 157.71 64.6773 157.401 64.592C157.092 64.496 156.681 64.4053 156.169 64.32C155.486 64.192 154.937 64.064 154.521 63.936C154.105 63.7973 153.748 63.568 153.449 63.248C153.161 62.928 153.017 62.4853 153.017 61.92C153.017 61.216 153.31 60.64 153.897 60.192C154.484 59.744 155.3 59.52 156.345 59.52C156.889 59.52 157.433 59.5947 157.977 59.744C158.521 59.8827 158.969 60.0693 159.321 60.304L158.825 61.216C158.132 60.736 157.305 60.496 156.345 60.496C155.62 60.496 155.07 60.624 154.697 60.88C154.334 61.136 154.153 61.472 154.153 61.888C154.153 62.208 154.254 62.464 154.457 62.656C154.67 62.848 154.932 62.992 155.241 63.088C155.55 63.1733 155.977 63.264 156.521 63.36C157.193 63.488 157.732 63.616 158.137 63.744C158.542 63.872 158.889 64.0907 159.177 64.4C159.465 64.7093 159.609 65.136 159.609 65.68C159.609 66.416 159.3 67.0027 158.681 67.44C158.073 67.8667 157.225 68.08 156.137 68.08ZM170.329 67.488C170.115 67.68 169.849 67.8293 169.529 67.936C169.219 68.032 168.894 68.08 168.553 68.08C167.763 68.08 167.155 67.8667 166.729 67.44C166.302 67.0133 166.089 66.4107 166.089 65.632V60.544H164.585V59.584H166.089V57.744H167.225V59.584H169.785V60.544H167.225V65.568C167.225 66.0693 167.347 66.4533 167.593 66.72C167.849 66.976 168.211 67.104 168.681 67.104C168.915 67.104 169.139 67.0667 169.353 66.992C169.577 66.9173 169.769 66.8107 169.929 66.672L170.329 67.488ZM176.685 59.52C177.741 59.52 178.578 59.8293 179.197 60.448C179.826 61.056 180.141 61.9467 180.141 63.12V68H179.005V63.232C179.005 62.3573 178.786 61.6907 178.349 61.232C177.911 60.7733 177.287 60.544 176.477 60.544C175.57 60.544 174.85 60.816 174.317 61.36C173.794 61.8933 173.533 62.6347 173.533 63.584V68H172.397V56.128H173.533V61.056C173.842 60.5653 174.269 60.1867 174.812 59.92C175.357 59.6533 175.981 59.52 176.685 59.52ZM186.169 59.52C187.267 59.52 188.11 59.7973 188.697 60.352C189.283 60.896 189.577 61.7067 189.577 62.784V68H188.489V66.688C188.233 67.1253 187.854 67.4667 187.353 67.712C186.862 67.9573 186.275 68.08 185.593 68.08C184.654 68.08 183.907 67.856 183.353 67.408C182.798 66.96 182.521 66.368 182.521 65.632C182.521 64.9173 182.777 64.3413 183.289 63.904C183.811 63.4667 184.638 63.248 185.769 63.248H188.441V62.736C188.441 62.0107 188.238 61.4613 187.833 61.088C187.427 60.704 186.835 60.512 186.057 60.512C185.523 60.512 185.011 60.6027 184.521 60.784C184.03 60.9547 183.609 61.1947 183.257 61.504L182.745 60.656C183.171 60.2933 183.683 60.016 184.281 59.824C184.878 59.6213 185.507 59.52 186.169 59.52ZM185.769 67.184C186.409 67.184 186.958 67.04 187.417 66.752C187.875 66.4533 188.217 66.0267 188.441 65.472V64.096H185.801C184.361 64.096 183.641 64.5973 183.641 65.6C183.641 66.0907 183.827 66.48 184.201 66.768C184.574 67.0453 185.097 67.184 185.769 67.184ZM197.094 67.488C196.881 67.68 196.614 67.8293 196.294 67.936C195.985 68.032 195.659 68.08 195.318 68.08C194.529 68.08 193.921 67.8667 193.494 67.44C193.067 67.0133 192.854 66.4107 192.854 65.632V60.544H191.35V59.584H192.854V57.744H193.99V59.584H196.55V60.544H193.99V65.568C193.99 66.0693 194.113 66.4533 194.358 66.72C194.614 66.976 194.977 67.104 195.446 67.104C195.681 67.104 195.905 67.0667 196.118 66.992C196.342 66.9173 196.534 66.8107 196.694 66.672L197.094 67.488ZM207.782 67.488C207.568 67.68 207.302 67.8293 206.982 67.936C206.672 68.032 206.347 68.08 206.006 68.08C205.216 68.08 204.608 67.8667 204.182 67.44C203.755 67.0133 203.542 66.4107 203.542 65.632V60.544H202.038V59.584H203.542V57.744H204.678V59.584H207.238V60.544H204.678V65.568C204.678 66.0693 204.8 66.4533 205.046 66.72C205.302 66.976 205.664 67.104 206.134 67.104C206.368 67.104 206.592 67.0667 206.806 66.992C207.03 66.9173 207.222 66.8107 207.382 66.672L207.782 67.488ZM212.794 59.52C213.892 59.52 214.735 59.7973 215.322 60.352C215.908 60.896 216.202 61.7067 216.202 62.784V68H215.114V66.688C214.858 67.1253 214.479 67.4667 213.978 67.712C213.487 67.9573 212.9 68.08 212.218 68.08C211.279 68.08 210.532 67.856 209.978 67.408C209.423 66.96 209.146 66.368 209.146 65.632C209.146 64.9173 209.402 64.3413 209.914 63.904C210.436 63.4667 211.263 63.248 212.394 63.248H215.066V62.736C215.066 62.0107 214.863 61.4613 214.458 61.088C214.052 60.704 213.46 60.512 212.682 60.512C212.148 60.512 211.636 60.6027 211.146 60.784C210.655 60.9547 210.234 61.1947 209.882 61.504L209.37 60.656C209.796 60.2933 210.308 60.016 210.906 59.824C211.503 59.6213 212.132 59.52 212.794 59.52ZM212.394 67.184C213.034 67.184 213.583 67.04 214.042 66.752C214.5 66.4533 214.842 66.0267 215.066 65.472V64.096H212.426C210.986 64.096 210.266 64.5973 210.266 65.6C210.266 66.0907 210.452 66.48 210.826 66.768C211.199 67.0453 211.722 67.184 212.394 67.184ZM222.407 63.776L220.423 65.6V68H219.287V56.128H220.423V64.176L225.447 59.584H226.855L223.255 63.024L227.191 68H225.799L222.407 63.776ZM235.881 64.144H228.841C228.905 65.0187 229.241 65.728 229.849 66.272C230.457 66.8053 231.225 67.072 232.153 67.072C232.675 67.072 233.155 66.9813 233.593 66.8C234.03 66.608 234.409 66.3307 234.729 65.968L235.369 66.704C234.995 67.152 234.526 67.4933 233.961 67.728C233.406 67.9627 232.793 68.08 232.121 68.08C231.257 68.08 230.489 67.8987 229.817 67.536C229.155 67.1627 228.638 66.6507 228.265 66C227.891 65.3493 227.705 64.6133 227.705 63.792C227.705 62.9707 227.881 62.2347 228.233 61.584C228.595 60.9333 229.086 60.4267 229.705 60.064C230.334 59.7013 231.038 59.52 231.817 59.52C232.595 59.52 233.294 59.7013 233.913 60.064C234.531 60.4267 235.017 60.9333 235.369 61.584C235.721 62.224 235.897 62.96 235.897 63.792L235.881 64.144ZM231.817 60.496C231.006 60.496 230.323 60.7573 229.769 61.28C229.225 61.792 228.915 62.464 228.841 63.296H234.809C234.734 62.464 234.419 61.792 233.865 61.28C233.321 60.7573 232.638 60.496 231.817 60.496ZM249.469 59.584L245.261 69.008C244.919 69.7973 244.525 70.3573 244.077 70.688C243.629 71.0187 243.09 71.184 242.461 71.184C242.055 71.184 241.677 71.12 241.325 70.992C240.973 70.864 240.668 70.672 240.412 70.416L240.941 69.568C241.367 69.9947 241.879 70.208 242.477 70.208C242.861 70.208 243.186 70.1013 243.453 69.888C243.73 69.6747 243.986 69.312 244.221 68.8L244.589 67.984L240.829 59.584H242.013L245.181 66.736L248.349 59.584H249.469ZM254.274 68.08C253.463 68.08 252.733 67.8987 252.082 67.536C251.431 67.1627 250.919 66.6507 250.546 66C250.173 65.3493 249.986 64.6133 249.986 63.792C249.986 62.9707 250.173 62.2347 250.546 61.584C250.919 60.9333 251.431 60.4267 252.082 60.064C252.733 59.7013 253.463 59.52 254.274 59.52C255.085 59.52 255.815 59.7013 256.466 60.064C257.117 60.4267 257.623 60.9333 257.986 61.584C258.359 62.2347 258.546 62.9707 258.546 63.792C258.546 64.6133 258.359 65.3493 257.986 66C257.623 66.6507 257.117 67.1627 256.466 67.536C255.815 67.8987 255.085 68.08 254.274 68.08ZM254.274 67.072C254.871 67.072 255.405 66.9387 255.874 66.672C256.354 66.3947 256.727 66.0053 256.994 65.504C257.261 65.0027 257.394 64.432 257.394 63.792C257.394 63.152 257.261 62.5813 256.994 62.08C256.727 61.5787 256.354 61.1947 255.874 60.928C255.405 60.6507 254.871 60.512 254.274 60.512C253.677 60.512 253.138 60.6507 252.658 60.928C252.189 61.1947 251.815 61.5787 251.538 62.08C251.271 62.5813 251.138 63.152 251.138 63.792C251.138 64.432 251.271 65.0027 251.538 65.504C251.815 66.0053 252.189 66.3947 252.658 66.672C253.138 66.9387 253.677 67.072 254.274 67.072ZM268.449 59.584V68H267.361V66.464C267.063 66.976 266.652 67.376 266.129 67.664C265.607 67.9413 265.009 68.08 264.337 68.08C263.239 68.08 262.369 67.776 261.729 67.168C261.1 66.5493 260.785 65.648 260.785 64.464V59.584H261.921V64.352C261.921 65.2373 262.14 65.9093 262.577 66.368C263.015 66.8267 263.639 67.056 264.449 67.056C265.335 67.056 266.033 66.7893 266.545 66.256C267.057 65.712 267.313 64.96 267.313 64V59.584H268.449ZM272.719 61.232C272.986 60.6667 273.38 60.24 273.903 59.952C274.436 59.664 275.092 59.52 275.871 59.52V60.624L275.599 60.608C274.714 60.608 274.02 60.88 273.519 61.424C273.018 61.968 272.767 62.7307 272.767 63.712V68H271.631V59.584H272.719V61.232ZM28.072 88.08C27.24 88.08 26.4933 87.8987 25.832 87.536C25.1813 87.1733 24.6693 86.6667 24.296 86.016C23.9227 85.3547 23.736 84.6133 23.736 83.792C23.736 82.9707 23.9227 82.2347 24.296 81.584C24.6693 80.9333 25.1813 80.4267 25.832 80.064C26.4933 79.7013 27.24 79.52 28.072 79.52C28.7973 79.52 29.4427 79.664 30.008 79.952C30.584 80.2293 31.0373 80.64 31.368 81.184L30.52 81.76C30.2427 81.344 29.8907 81.0347 29.464 80.832C29.0373 80.6187 28.5733 80.512 28.072 80.512C27.464 80.512 26.9147 80.6507 26.424 80.928C25.944 81.1947 25.5653 81.5787 25.288 82.08C25.0213 82.5813 24.888 83.152 24.888 83.792C24.888 84.4427 25.0213 85.0187 25.288 85.52C25.5653 86.0107 25.944 86.3947 26.424 86.672C26.9147 86.9387 27.464 87.072 28.072 87.072C28.5733 87.072 29.0373 86.9707 29.464 86.768C29.8907 86.5653 30.2427 86.256 30.52 85.84L31.368 86.416C31.0373 86.96 30.584 87.376 30.008 87.664C29.432 87.9413 28.7867 88.08 28.072 88.08ZM34.6876 81.232C34.9543 80.6667 35.349 80.24 35.8716 79.952C36.405 79.664 37.061 79.52 37.8396 79.52V80.624L37.5676 80.608C36.6823 80.608 35.989 80.88 35.4876 81.424C34.9863 81.968 34.7356 82.7307 34.7356 83.712V88H33.5996V79.584H34.6876V81.232ZM42.8249 79.52C43.9235 79.52 44.7662 79.7973 45.3529 80.352C45.9395 80.896 46.2329 81.7067 46.2329 82.784V88H45.1449V86.688C44.8889 87.1253 44.5102 87.4667 44.0089 87.712C43.5182 87.9573 42.9315 88.08 42.2489 88.08C41.3102 88.08 40.5635 87.856 40.0089 87.408C39.4542 86.96 39.1769 86.368 39.1769 85.632C39.1769 84.9173 39.4329 84.3413 39.9449 83.904C40.4675 83.4667 41.2942 83.248 42.4249 83.248H45.0969V82.736C45.0969 82.0107 44.8942 81.4613 44.4889 81.088C44.0835 80.704 43.4915 80.512 42.7129 80.512C42.1795 80.512 41.6675 80.6027 41.1769 80.784C40.6862 80.9547 40.2649 81.1947 39.9129 81.504L39.4009 80.656C39.8275 80.2933 40.3395 80.016 40.9369 79.824C41.5342 79.6213 42.1635 79.52 42.8249 79.52ZM42.4249 87.184C43.0649 87.184 43.6142 87.04 44.0729 86.752C44.5315 86.4533 44.8729 86.0267 45.0969 85.472V84.096H42.4569C41.0169 84.096 40.2969 84.5973 40.2969 85.6C40.2969 86.0907 40.4835 86.48 40.8569 86.768C41.2302 87.0453 41.7529 87.184 42.4249 87.184ZM52.1024 77.008C51.6117 77.008 51.2384 77.1413 50.9824 77.408C50.737 77.6747 50.6144 78.0693 50.6144 78.592V79.584H53.2064V80.544H50.6464V88H49.5104V80.544H48.0064V79.584H49.5104V78.544C49.5104 77.776 49.729 77.168 50.1664 76.72C50.6144 76.272 51.2437 76.048 52.0544 76.048C52.3744 76.048 52.6837 76.096 52.9824 76.192C53.281 76.2773 53.5317 76.4053 53.7344 76.576L53.3504 77.424C53.0197 77.1467 52.6037 77.008 52.1024 77.008ZM59.1723 87.488C58.9589 87.68 58.6923 87.8293 58.3723 87.936C58.0629 88.032 57.7376 88.08 57.3963 88.08C56.6069 88.08 55.9989 87.8667 55.5723 87.44C55.1456 87.0133 54.9323 86.4107 54.9323 85.632V80.544H53.4283V79.584H54.9323V77.744H56.0683V79.584H58.6283V80.544H56.0683V85.568C56.0683 86.0693 56.1909 86.4533 56.4363 86.72C56.6923 86.976 57.0549 87.104 57.5243 87.104C57.7589 87.104 57.9829 87.0667 58.1963 86.992C58.4203 86.9173 58.6123 86.8107 58.7723 86.672L59.1723 87.488ZM61.2403 79.584H62.3763V88H61.2403V79.584ZM61.8163 77.744C61.5816 77.744 61.3843 77.664 61.2243 77.504C61.0643 77.344 60.9843 77.152 60.9843 76.928C60.9843 76.7147 61.0643 76.528 61.2243 76.368C61.3843 76.208 61.5816 76.128 61.8163 76.128C62.0509 76.128 62.2483 76.208 62.4083 76.368C62.5683 76.5173 62.6483 76.6987 62.6483 76.912C62.6483 77.1467 62.5683 77.344 62.4083 77.504C62.2483 77.664 62.0509 77.744 61.8163 77.744ZM69.8251 79.52C70.8811 79.52 71.7185 79.8293 72.3371 80.448C72.9665 81.056 73.2811 81.9467 73.2811 83.12V88H72.1451V83.232C72.1451 82.3573 71.9265 81.6907 71.4891 81.232C71.0518 80.7733 70.4278 80.544 69.6171 80.544C68.7105 80.544 67.9905 80.816 67.4571 81.36C66.9345 81.8933 66.6731 82.6347 66.6731 83.584V88H65.5371V79.584H66.6251V81.136C66.9345 80.624 67.3611 80.2293 67.9051 79.952C68.4598 79.664 69.0998 79.52 69.8251 79.52ZM84.1885 79.584V86.976C84.1885 88.4053 83.8365 89.4613 83.1325 90.144C82.4392 90.8373 81.3885 91.184 79.9805 91.184C79.2018 91.184 78.4605 91.0667 77.7565 90.832C77.0632 90.608 76.4978 90.2933 76.0605 89.888L76.6365 89.024C77.0418 89.3867 77.5325 89.6693 78.1085 89.872C78.6952 90.0747 79.3085 90.176 79.9485 90.176C81.0152 90.176 81.7992 89.9253 82.3005 89.424C82.8018 88.9333 83.0525 88.1653 83.0525 87.12V86.048C82.7005 86.5813 82.2365 86.9867 81.6605 87.264C81.0952 87.5413 80.4658 87.68 79.7725 87.68C78.9832 87.68 78.2632 87.5093 77.6125 87.168C76.9725 86.816 76.4658 86.3307 76.0925 85.712C75.7298 85.0827 75.5485 84.3733 75.5485 83.584C75.5485 82.7947 75.7298 82.0907 76.0925 81.472C76.4658 80.8533 76.9725 80.3733 77.6125 80.032C78.2525 79.6907 78.9725 79.52 79.7725 79.52C80.4872 79.52 81.1325 79.664 81.7085 79.952C82.2845 80.24 82.7485 80.656 83.1005 81.2V79.584H84.1885ZM79.8845 86.672C80.4925 86.672 81.0418 86.544 81.5325 86.288C82.0232 86.0213 82.4018 85.6533 82.6685 85.184C82.9458 84.7147 83.0845 84.1813 83.0845 83.584C83.0845 82.9867 82.9458 82.4587 82.6685 82C82.4018 81.5307 82.0232 81.168 81.5325 80.912C81.0525 80.6453 80.5032 80.512 79.8845 80.512C79.2765 80.512 78.7272 80.64 78.2365 80.896C77.7565 81.152 77.3778 81.5147 77.1005 81.984C76.8338 82.4533 76.7005 82.9867 76.7005 83.584C76.7005 84.1813 76.8338 84.7147 77.1005 85.184C77.3778 85.6533 77.7565 86.0213 78.2365 86.288C78.7272 86.544 79.2765 86.672 79.8845 86.672ZM95.9848 87.488C95.7714 87.68 95.5048 87.8293 95.1848 87.936C94.8754 88.032 94.5501 88.08 94.2088 88.08C93.4194 88.08 92.8114 87.8667 92.3848 87.44C91.9581 87.0133 91.7448 86.4107 91.7448 85.632V80.544H90.2408V79.584H91.7448V77.744H92.8808V79.584H95.4408V80.544H92.8808V85.568C92.8808 86.0693 93.0034 86.4533 93.2488 86.72C93.5048 86.976 93.8674 87.104 94.3368 87.104C94.5714 87.104 94.7954 87.0667 95.0088 86.992C95.2328 86.9173 95.4248 86.8107 95.5848 86.672L95.9848 87.488ZM101.196 88.08C100.385 88.08 99.6545 87.8987 99.0039 87.536C98.3532 87.1627 97.8412 86.6507 97.4679 86C97.0945 85.3493 96.9079 84.6133 96.9079 83.792C96.9079 82.9707 97.0945 82.2347 97.4679 81.584C97.8412 80.9333 98.3532 80.4267 99.0039 80.064C99.6545 79.7013 100.385 79.52 101.196 79.52C102.007 79.52 102.737 79.7013 103.388 80.064C104.039 80.4267 104.545 80.9333 104.908 81.584C105.281 82.2347 105.468 82.9707 105.468 83.792C105.468 84.6133 105.281 85.3493 104.908 86C104.545 86.6507 104.039 87.1627 103.388 87.536C102.737 87.8987 102.007 88.08 101.196 88.08ZM101.196 87.072C101.793 87.072 102.327 86.9387 102.796 86.672C103.276 86.3947 103.649 86.0053 103.916 85.504C104.183 85.0027 104.316 84.432 104.316 83.792C104.316 83.152 104.183 82.5813 103.916 82.08C103.649 81.5787 103.276 81.1947 102.796 80.928C102.327 80.6507 101.793 80.512 101.196 80.512C100.599 80.512 100.06 80.6507 99.5799 80.928C99.1105 81.1947 98.7372 81.5787 98.4599 82.08C98.1932 82.5813 98.0599 83.152 98.0599 83.792C98.0599 84.432 98.1932 85.0027 98.4599 85.504C98.7372 86.0053 99.1105 86.3947 99.5799 86.672C100.06 86.9387 100.599 87.072 101.196 87.072ZM116.407 87.488C116.193 87.68 115.927 87.8293 115.607 87.936C115.297 88.032 114.972 88.08 114.631 88.08C113.841 88.08 113.233 87.8667 112.807 87.44C112.38 87.0133 112.167 86.4107 112.167 85.632V80.544H110.663V79.584H112.167V77.744H113.303V79.584H115.863V80.544H113.303V85.568C113.303 86.0693 113.425 86.4533 113.671 86.72C113.927 86.976 114.289 87.104 114.759 87.104C114.993 87.104 115.217 87.0667 115.431 86.992C115.655 86.9173 115.847 86.8107 116.007 86.672L116.407 87.488ZM122.763 79.52C123.819 79.52 124.656 79.8293 125.275 80.448C125.904 81.056 126.219 81.9467 126.219 83.12V88H125.083V83.232C125.083 82.3573 124.864 81.6907 124.427 81.232C123.989 80.7733 123.365 80.544 122.555 80.544C121.648 80.544 120.928 80.816 120.395 81.36C119.872 81.8933 119.611 82.6347 119.611 83.584V88H118.475V76.128H119.611V81.056C119.92 80.5653 120.347 80.1867 120.891 79.92C121.435 79.6533 122.059 79.52 122.763 79.52ZM136.662 84.144H129.622C129.686 85.0187 130.022 85.728 130.63 86.272C131.238 86.8053 132.006 87.072 132.934 87.072C133.457 87.072 133.937 86.9813 134.374 86.8C134.811 86.608 135.19 86.3307 135.51 85.968L136.15 86.704C135.777 87.152 135.307 87.4933 134.742 87.728C134.187 87.9627 133.574 88.08 132.902 88.08C132.038 88.08 131.27 87.8987 130.598 87.536C129.937 87.1627 129.419 86.6507 129.046 86C128.673 85.3493 128.486 84.6133 128.486 83.792C128.486 82.9707 128.662 82.2347 129.014 81.584C129.377 80.9333 129.867 80.4267 130.486 80.064C131.115 79.7013 131.819 79.52 132.598 79.52C133.377 79.52 134.075 79.7013 134.694 80.064C135.313 80.4267 135.798 80.9333 136.15 81.584C136.502 82.224 136.678 82.96 136.678 83.792L136.662 84.144ZM132.598 80.496C131.787 80.496 131.105 80.7573 130.55 81.28C130.006 81.792 129.697 82.464 129.622 83.296H135.59C135.515 82.464 135.201 81.792 134.646 81.28C134.102 80.7573 133.419 80.496 132.598 80.496ZM147.466 79.52C148.522 79.52 149.359 79.8293 149.978 80.448C150.607 81.056 150.922 81.9467 150.922 83.12V88H149.786V83.232C149.786 82.3573 149.567 81.6907 149.13 81.232C148.692 80.7733 148.068 80.544 147.258 80.544C146.351 80.544 145.631 80.816 145.098 81.36C144.575 81.8933 144.314 82.6347 144.314 83.584V88H143.178V79.584H144.266V81.136C144.575 80.624 145.002 80.2293 145.546 79.952C146.1 79.664 146.74 79.52 147.466 79.52ZM161.365 84.144H154.325C154.389 85.0187 154.725 85.728 155.333 86.272C155.941 86.8053 156.709 87.072 157.637 87.072C158.16 87.072 158.64 86.9813 159.077 86.8C159.514 86.608 159.893 86.3307 160.213 85.968L160.853 86.704C160.48 87.152 160.01 87.4933 159.445 87.728C158.89 87.9627 158.277 88.08 157.605 88.08C156.741 88.08 155.973 87.8987 155.301 87.536C154.64 87.1627 154.122 86.6507 153.749 86C153.376 85.3493 153.189 84.6133 153.189 83.792C153.189 82.9707 153.365 82.2347 153.717 81.584C154.08 80.9333 154.57 80.4267 155.189 80.064C155.818 79.7013 156.522 79.52 157.301 79.52C158.08 79.52 158.778 79.7013 159.397 80.064C160.016 80.4267 160.501 80.9333 160.853 81.584C161.205 82.224 161.381 82.96 161.381 83.792L161.365 84.144ZM157.301 80.496C156.49 80.496 155.808 80.7573 155.253 81.28C154.709 81.792 154.4 82.464 154.325 83.296H160.293C160.218 82.464 159.904 81.792 159.349 81.28C158.805 80.7573 158.122 80.496 157.301 80.496ZM168.819 88L166.147 84.48L163.459 88H162.179L165.507 83.68L162.339 79.584H163.619L166.147 82.88L168.675 79.584H169.923L166.755 83.68L170.115 88H168.819ZM176.438 87.488C176.225 87.68 175.958 87.8293 175.638 87.936C175.329 88.032 175.003 88.08 174.662 88.08C173.873 88.08 173.265 87.8667 172.838 87.44C172.411 87.0133 172.198 86.4107 172.198 85.632V80.544H170.694V79.584H172.198V77.744H173.334V79.584H175.894V80.544H173.334V85.568C173.334 86.0693 173.457 86.4533 173.702 86.72C173.958 86.976 174.321 87.104 174.79 87.104C175.025 87.104 175.249 87.0667 175.462 86.992C175.686 86.9173 175.878 86.8107 176.038 86.672L176.438 87.488ZM182.693 76.128H183.829V88H182.693V76.128ZM194.318 84.144H187.278C187.342 85.0187 187.678 85.728 188.286 86.272C188.894 86.8053 189.662 87.072 190.59 87.072C191.113 87.072 191.593 86.9813 192.03 86.8C192.468 86.608 192.846 86.3307 193.166 85.968L193.806 86.704C193.433 87.152 192.964 87.4933 192.398 87.728C191.844 87.9627 191.23 88.08 190.558 88.08C189.694 88.08 188.926 87.8987 188.254 87.536C187.593 87.1627 187.076 86.6507 186.702 86C186.329 85.3493 186.142 84.6133 186.142 83.792C186.142 82.9707 186.318 82.2347 186.67 81.584C187.033 80.9333 187.524 80.4267 188.142 80.064C188.772 79.7013 189.476 79.52 190.254 79.52C191.033 79.52 191.732 79.7013 192.35 80.064C192.969 80.4267 193.454 80.9333 193.806 81.584C194.158 82.224 194.334 82.96 194.334 83.792L194.318 84.144ZM190.254 80.496C189.444 80.496 188.761 80.7573 188.206 81.28C187.662 81.792 187.353 82.464 187.278 83.296H193.246C193.172 82.464 192.857 81.792 192.302 81.28C191.758 80.7573 191.076 80.496 190.254 80.496ZM203.562 79.584L199.818 88H198.65L194.922 79.584H196.106L199.258 86.752L202.442 79.584H203.562ZM212.256 84.144H205.216C205.28 85.0187 205.616 85.728 206.224 86.272C206.832 86.8053 207.6 87.072 208.528 87.072C209.05 87.072 209.53 86.9813 209.968 86.8C210.405 86.608 210.784 86.3307 211.104 85.968L211.744 86.704C211.37 87.152 210.901 87.4933 210.336 87.728C209.781 87.9627 209.168 88.08 208.496 88.08C207.632 88.08 206.864 87.8987 206.192 87.536C205.53 87.1627 205.013 86.6507 204.64 86C204.266 85.3493 204.08 84.6133 204.08 83.792C204.08 82.9707 204.256 82.2347 204.608 81.584C204.97 80.9333 205.461 80.4267 206.08 80.064C206.709 79.7013 207.413 79.52 208.192 79.52C208.97 79.52 209.669 79.7013 210.288 80.064C210.906 80.4267 211.392 80.9333 211.744 81.584C212.096 82.224 212.272 82.96 212.272 83.792L212.256 84.144ZM208.192 80.496C207.381 80.496 206.698 80.7573 206.144 81.28C205.6 81.792 205.29 82.464 205.216 83.296H211.184C211.109 82.464 210.794 81.792 210.24 81.28C209.696 80.7573 209.013 80.496 208.192 80.496ZM214.584 76.128H215.72V88H214.584V76.128ZM218.993 88.08C218.758 88.08 218.556 87.9947 218.385 87.824C218.225 87.6533 218.145 87.4453 218.145 87.2C218.145 86.9547 218.225 86.752 218.385 86.592C218.556 86.4213 218.758 86.336 218.993 86.336C219.228 86.336 219.43 86.4213 219.601 86.592C219.772 86.752 219.857 86.9547 219.857 87.2C219.857 87.4453 219.772 87.6533 219.601 87.824C219.43 87.9947 219.228 88.08 218.993 88.08Z" fill="white"/>
<defs>
<linearGradient id="paint0_linear_231_2142" x1="1.33365e-06" y1="54" x2="544" y2="54" gradientUnits="userSpaceOnUse">
<stop offset="0.354167" stop-color="#489CA7"/>
<stop offset="1" stop-color="white"/>
</linearGradient>
</defs>
</svg>
