<svg width="114" height="160" viewBox="0 0 114 160" fill="none" xmlns="http://www.w3.org/2000/svg">
<rect width="114" height="160" rx="4" fill="#A91329"/>
<path d="M40.5329 61L35.9529 75H32.4729L29.3929 65.52L26.2129 75H22.7529L18.1529 61H21.5129L24.6729 70.84L27.9729 61H30.9729L34.1729 70.92L37.4329 61H40.5329ZM51.8609 69.66C51.8609 69.7 51.8409 69.98 51.8009 70.5H43.6609C43.8075 71.1667 44.1542 71.6933 44.7009 72.08C45.2475 72.4667 45.9275 72.66 46.7409 72.66C47.3009 72.66 47.7942 72.58 48.2209 72.42C48.6609 72.2467 49.0675 71.98 49.4409 71.62L51.1009 73.42C50.0875 74.58 48.6075 75.16 46.6609 75.16C45.4475 75.16 44.3742 74.9267 43.4409 74.46C42.5075 73.98 41.7875 73.32 41.2809 72.48C40.7742 71.64 40.5209 70.6867 40.5209 69.62C40.5209 68.5667 40.7675 67.62 41.2609 66.78C41.7675 65.9267 42.4542 65.2667 43.3209 64.8C44.2009 64.32 45.1809 64.08 46.2609 64.08C47.3142 64.08 48.2675 64.3067 49.1209 64.76C49.9742 65.2133 50.6409 65.8667 51.1209 66.72C51.6142 67.56 51.8609 68.54 51.8609 69.66ZM46.2809 66.44C45.5742 66.44 44.9809 66.64 44.5009 67.04C44.0209 67.44 43.7275 67.9867 43.6209 68.68H48.9209C48.8142 68 48.5209 67.46 48.0409 67.06C47.5609 66.6467 46.9742 66.44 46.2809 66.44ZM64.478 69.66C64.478 69.7 64.458 69.98 64.418 70.5H56.278C56.4247 71.1667 56.7714 71.6933 57.318 72.08C57.8647 72.4667 58.5447 72.66 59.358 72.66C59.918 72.66 60.4114 72.58 60.838 72.42C61.278 72.2467 61.6847 71.98 62.058 71.62L63.718 73.42C62.7047 74.58 61.2247 75.16 59.278 75.16C58.0647 75.16 56.9914 74.9267 56.058 74.46C55.1247 73.98 54.4047 73.32 53.898 72.48C53.3914 71.64 53.138 70.6867 53.138 69.62C53.138 68.5667 53.3847 67.62 53.878 66.78C54.3847 65.9267 55.0714 65.2667 55.938 64.8C56.818 64.32 57.798 64.08 58.878 64.08C59.9314 64.08 60.8847 64.3067 61.738 64.76C62.5914 65.2133 63.258 65.8667 63.738 66.72C64.2314 67.56 64.478 68.54 64.478 69.66ZM58.898 66.44C58.1914 66.44 57.598 66.64 57.118 67.04C56.638 67.44 56.3447 67.9867 56.238 68.68H61.538C61.4314 68 61.138 67.46 60.658 67.06C60.178 66.6467 59.5914 66.44 58.898 66.44ZM71.1752 70.78L69.6752 72.26V75H66.5552V60.16H69.6752V68.56L74.2352 64.24H77.9552L73.4752 68.8L78.3552 75H74.5752L71.1752 70.78ZM79.7584 60.16H82.8784V75H79.7584V60.16ZM96.454 64.24L91.594 75.66C91.1007 76.9 90.4873 77.7733 89.754 78.28C89.034 78.7867 88.1607 79.04 87.134 79.04C86.574 79.04 86.0207 78.9533 85.474 78.78C84.9273 78.6067 84.4807 78.3667 84.134 78.06L85.274 75.84C85.514 76.0533 85.7873 76.22 86.094 76.34C86.414 76.46 86.7273 76.52 87.034 76.52C87.4607 76.52 87.8073 76.4133 88.074 76.2C88.3407 76 88.5807 75.66 88.794 75.18L88.834 75.08L84.174 64.24H87.394L90.414 71.54L93.454 64.24H96.454ZM53.3488 96H46.8488L45.6088 99H42.2887L48.5288 85H51.7288L57.9888 99H54.5888L53.3488 96ZM52.3288 93.54L50.1088 88.18L47.8888 93.54H52.3288ZM70.0836 84.16V99H67.1036V97.76C66.3303 98.6933 65.2103 99.16 63.7436 99.16C62.7303 99.16 61.8103 98.9333 60.9836 98.48C60.1703 98.0267 59.5303 97.38 59.0636 96.54C58.5969 95.7 58.3636 94.7267 58.3636 93.62C58.3636 92.5133 58.5969 91.54 59.0636 90.7C59.5303 89.86 60.1703 89.2133 60.9836 88.76C61.8103 88.3067 62.7303 88.08 63.7436 88.08C65.1169 88.08 66.1903 88.5133 66.9636 89.38V84.16H70.0836ZM64.2836 96.6C65.0703 96.6 65.7236 96.3333 66.2436 95.8C66.7636 95.2533 67.0236 94.5267 67.0236 93.62C67.0236 92.7133 66.7636 91.9933 66.2436 91.46C65.7236 90.9133 65.0703 90.64 64.2836 90.64C63.4836 90.64 62.8236 90.9133 62.3036 91.46C61.7836 91.9933 61.5236 92.7133 61.5236 93.62C61.5236 94.5267 61.7836 95.2533 62.3036 95.8C62.8236 96.3333 63.4836 96.6 64.2836 96.6Z" fill="white"/>
</svg>
